# xmcd
#
# Track frame offsets:
#       150
#       12371
#       28849
#       71587
#       82410
#       92906
#       107684
#       118996
#       134867
#       145515
#       162330
#
# Disc length: 2343 seconds
#
# Revision: 0
# Processed by: cddbd v1.4PL0 Copyright (c) Steve Scherf et al.
# Submitted via: CD-DA_X-Tractor v0.21
#
DISCID=a309250b
DTITLE=X-Three - x-Three
DYEAR=1900
DGENRE=
TTITLE0=Evening
TTITLE1=If you were a queen
TTITLE2=No more sweet potatoes
TTITLE3=That's all right mama
TTITLE4=The dirty dozen
TTITLE5=Ain't that loving you baby
TTITLE6=Police dog blues
TTITLE7=I can't be satisfied
TTITLE8=One dime blues
TTITLE9=I was 17
TTITLE10=County jail blues
EXTD=
EXTT0=
EXTT1=
EXTT2=
EXTT3=
EXTT4=
EXTT5=
EXTT6=
EXTT7=
EXTT8=
EXTT9=
EXTT10=
PLAYORDER=
